HIERARCHY
ROOT Hips
{
	OFFSET 0.000000 0.000000 0.000000
	CHANNELS 6 Xposition Yposition Zposition Zrotation Yrotation Xrotation 
	JOINT LowerBack
	{
		OFFSET 0.000000 0.000000 0.000000
		CHANNELS 3 Zrotation Yrotation Xrotation
		JOINT Spine
		{
			OFFSET 0.028270 2.035590 -0.193380
			CHANNELS 3 Zrotation Yrotation Xrotation
			JOINT Spine1
			{
				OFFSET 0.056720 2.048850 -0.042750
				CHANNELS 3 Zrotation Yrotation Xrotation
				JOINT Neck
				{
					OFFSET 0.000000 0.000000 0.000000
					CHANNELS 3 Zrotation Yrotation Xrotation
					JOINT Neck1
					{
						OFFSET -0.054170 1.746240 0.172020
						CHANNELS 3 Zrotation Yrotation Xrotation
						JOINT Head
						{
							OFFSET 0.104070 1.761360 -0.123970
							CHANNELS 3 Zrotation Yrotation Xrotation
							End Site
							{
								OFFSET 0.000000 0.000000 0.000000
							}
						}
					}
				}
				JOINT LeftShoulder
				{
					OFFSET 0.000000 0.000000 0.000000
					CHANNELS 3 Zrotation Yrotation Xrotation
					JOINT LeftArm
					{
						OFFSET 3.362410 1.200890 -0.311210
						CHANNELS 3 Zrotation Yrotation Xrotation
						JOINT LeftForeArm
						{
							OFFSET 4.983000 -0.000000 -0.000000
							CHANNELS 3 Zrotation Yrotation Xrotation
							JOINT LeftHand
							{
								OFFSET 3.483560 -0.000000 -0.000000
								CHANNELS 3 Zrotation Yrotation Xrotation
								JOINT LeftFingerBase
								{
									OFFSET 0.000000 0.000000 0.000000
									CHANNELS 3 Zrotation Yrotation Xrotation
									JOINT LeftHandIndex1
									{
										OFFSET 0.715260 -0.000000 -0.000000
										CHANNELS 3 Zrotation Yrotation Xrotation
										End Site
										{
											OFFSET 0.000000 0.000000 0.000000
										}
									}
								}
								JOINT LThumb
								{
									OFFSET 0.000000 0.000000 0.000000
									CHANNELS 3 Zrotation Yrotation Xrotation
									End Site
									{
										OFFSET 0.000000 0.000000 0.000000
									}
								}
							}
						}
					}
				}
				JOINT RightShoulder
				{
					OFFSET 0.000000 0.000000 0.000000
					CHANNELS 3 Zrotation Yrotation Xrotation
					JOINT RightArm
					{
						OFFSET -3.136600 1.374050 -0.404650
						CHANNELS 3 Zrotation Yrotation Xrotation
						JOINT RightForeArm
						{
							OFFSET -5.241900 -0.000000 -0.000000
							CHANNELS 3 Zrotation Yrotation Xrotation
							JOINT RightHand
							{
								OFFSET -3.444170 -0.000000 -0.000000
								CHANNELS 3 Zrotation Yrotation Xrotation
								JOINT RightFingerBase
								{
									OFFSET 0.000000 0.000000 0.000000
									CHANNELS 3 Zrotation Yrotation Xrotation
									JOINT RightHandIndex1
									{
										OFFSET -0.622530 -0.000000 -0.000000
										CHANNELS 3 Zrotation Yrotation Xrotation
										End Site
										{
											OFFSET 0.000000 0.000000 0.000000
										}
									}
								}
								JOINT RThumb
								{
									OFFSET 0.000000 0.000000 0.000000
									CHANNELS 3 Zrotation Yrotation Xrotation
									End Site
									{
										OFFSET 0.000000 0.000000 0.000000
									}
								}
							}
						}
					}
				}
			}
		}
	}
}
}
MOTION
Frames: 9
Frame Time: 0.008333
2.776249 17.397398 0.552716 6.384339 -62.753452 0.705966 -4.963799 4.211619 -7.701396 -2.153602 4.518443 -4.246332 -4.600979 4.547813 -0.738132 -2.587089 -2.687666 -6.924837 -1.384068 -0.111164 0.204141 0.000000 0.000000 0.000000 7.169131 13.927297 -3.294021 -22.945351 -54.013738 -8.004670 177.784761 -61.044832 179.956017 0.735472 -5.915637 -0.029186 0.278871 0.898630 -0.000000 0.000000 0.000000 0.000000 0.000000 0.000000 0.000000 -6.004157 3.193365 5.419014 -18.033002 41.233370 -32.724102 1.171041 -2.813382 -0.057065 -7.047852 -10.257342 0.663979 0.333828 0.026531 0.000000 0.000000 0.000000 0.000000 0.000000 0.000000 0.000000 
2.758732 17.394250 0.554434 6.076278 -62.564611 0.850793 -4.881421 4.054722 -7.732855 -2.121915 4.363678 -4.186474 -4.579091 4.406980 -0.503444 -2.394002 -4.015057 -7.067773 -1.246796 -0.099358 0.171088 0.000000 0.000000 0.000000 7.412760 14.251308 -3.293855 -23.429445 -52.911747 -7.736156 177.731076 -59.768292 179.951899 1.110314 -5.845693 -0.051942 0.264244 0.898277 -0.000000 0.000000 0.000000 0.000000 0.000000 0.000000 0.000000 -6.452604 1.850158 5.157694 -18.058351 43.706972 -36.574575 0.818971 -2.498692 -0.054105 -7.615443 -8.848980 0.613302 0.329193 -0.020554 0.000000 0.000000 0.000000 0.000000 0.000000 0.000000 0.000000 
2.742677 17.387773 0.559066 5.680020 -62.103285 1.075142 -4.782937 3.824444 -7.763695 -2.040778 4.134730 -4.141156 -4.407590 4.187019 -0.325856 -2.491915 -5.256998 -7.048133 -0.967613 -0.080093 0.188221 0.000000 0.000000 0.000000 7.440849 14.353713 -3.182099 -23.728394 -51.723483 -7.547697 177.705678 -58.547649 179.948060 1.482808 -5.763237 -0.074080 0.247344 0.899553 0.000000 0.000000 0.000000 0.000000 0.000000 0.000000 0.000000 -8.024842 0.742641 4.595426 -14.322341 44.884165 -39.635409 0.092876 2.163433 -0.057076 -8.397443 -8.131035 0.611714 0.304149 -0.092089 -0.000000 0.000000 0.000000 0.000000 0.000000 0.000000 0.000000 
2.729270 17.379598 0.565527 5.240699 -61.442448 1.338699 -4.599584 3.517381 -7.781958 -1.934331 3.818001 -4.129062 -4.243001 3.878554 -0.278644 -2.681626 -6.038623 -6.849619 -0.714897 -0.065943 0.255417 0.000000 0.000000 0.000000 7.273782 14.239767 -2.977299 -23.631720 -50.362023 -7.534261 177.730667 -57.365415 179.944590 1.854440 -5.665929 -0.095702 0.225851 0.904704 0.000000 0.000000 0.000000 0.000000 0.000000 0.000000 0.000000 -9.728675 0.074141 3.845194 -9.080740 45.120920 -38.183764 -0.492048 8.818898 -0.057296 -8.185674 -7.403485 0.533856 0.254734 -0.168616 -0.000000 0.000000 0.000000 0.000000 0.000000 0.000000 0.000000 
2.717437 17.370431 0.572778 4.774826 -60.653447 1.607632 -4.427089 3.133239 -7.834504 -1.853870 3.417558 -4.152392 -4.189927 3.485985 -0.309211 -2.595191 -6.144412 -6.508490 -0.649179 -0.067744 0.357657 0.000000 0.000000 0.000000 7.212545 14.007744 -2.734512 -23.382931 -48.954943 -7.508304 177.813444 -56.289135 179.942139 2.164998 -5.549043 -0.113003 0.201812 0.914069 0.000000 0.000000 0.000000 0.000000 0.000000 0.000000 0.000000 -10.328792 -0.096658 3.171086 -5.067752 43.996496 -32.703579 -0.785527 16.881687 -0.059063 -7.951105 -7.004442 0.482844 0.212470 -0.237858 -0.000000 0.000000 0.000000 0.000000 0.000000 0.000000 0.000000 
2.706069 17.360019 0.579126 4.337994 -59.795469 1.836677 -4.298693 2.695909 -7.895726 -1.783477 2.966914 -4.192683 -4.154645 3.038872 -0.383721 -2.424932 -5.853640 -6.087934 -0.679485 -0.077767 0.479697 0.000000 0.000000 0.000000 7.171569 13.732157 -2.469607 -23.049460 -47.573547 -7.475132 177.934159 -55.341330 179.940798 2.392619 -5.420281 -0.124889 0.178363 0.924240 0.000000 0.000000 0.000000 0.000000 0.000000 0.000000 0.000000 -10.338856 0.007163 2.557038 -2.206969 42.301733 -27.966615 -0.989076 25.057470 -0.065099 -8.461726 -5.989765 0.429363 0.185577 -0.310681 -0.000000 0.000000 0.000000 0.000000 0.000000 0.000000 0.000000 
2.694360 17.348694 0.583192 3.968725 -58.927368 2.004455 -4.217965 2.238501 -7.940366 -1.724866 2.500598 -4.232733 -4.134808 2.573386 -0.468584 -2.235537 -5.535300 -5.662364 -0.746913 -0.090427 0.602221 0.000000 0.000000 0.000000 7.106471 13.476747 -2.208883 -22.602850 -46.306032 -7.483299 178.070217 -54.546845 179.940515 2.531114 -5.285328 -0.131063 0.157922 0.933520 -0.000000 0.000000 0.000000 0.000000 0.000000 0.000000 0.000000 -10.083621 0.079283 1.959534 0.048158 40.674934 -24.736342 -1.130385 32.779808 -0.074623 -9.415771 -4.404946 0.337391 0.166309 -0.379072 -0.000000 0.000000 0.000000 0.000000 0.000000 0.000000 0.000000 
2.681482 17.336893 0.584143 3.680478 -58.104991 2.107261 -4.202148 1.789722 -7.963417 -1.687537 2.048042 -4.263036 -4.143049 2.120294 -0.535506 -2.012870 -5.387820 -5.283233 -0.828163 -0.103139 0.711147 0.000000 0.000000 0.000000 7.042980 13.294120 -1.975133 -22.069385 -45.239305 -7.527457 178.204932 -53.937943 179.941350 2.572011 -5.145269 -0.131333 0.142415 0.940914 -0.000000 0.000000 0.000000 0.000000 0.000000 0.000000 0.000000 -9.666287 -0.043544 1.376422 2.027720 39.288400 -22.591123 -1.198970 40.015303 -0.086037 -10.501720 -2.663879 0.207809 0.150089 -0.435437 -0.000000 0.000000 0.000000 0.000000 0.000000 0.000000 0.000000 
2.666550 17.325183 0.581587 3.473348 -57.376208 2.151876 -4.268377 1.373378 -7.969693 -1.678589 1.633942 -4.280132 -4.182013 1.704660 -0.568138 -1.733312 -5.477633 -4.978026 -0.913020 -0.114709 0.798779 0.000000 0.000000 0.000000 7.021662 13.216027 -1.781919 -21.505183 -44.433529 -7.577918 178.327973 -53.535936 179.943338 2.511566 -5.001589 -0.125606 0.132999 0.945928 -0.000000 0.000000 0.000000 0.000000 0.000000 0.000000 0.000000 -9.123704 -0.405297 0.820577 3.901211 38.097255 -21.135298 -1.189056 46.885901 -0.097950 -11.563924 -1.096956 0.063605 0.136017 -0.477805 -0.000000 0.000000 0.000000 0.000000 0.000000 0.000000 0.000000 
